<svg width="59" height="59" viewBox="0 0 59 59" fill="none" xmlns="http://www.w3.org/2000/svg">
<path d="M17.9866 0.753013C17.4811 0.264098 16.8036 -0.00617959 16.1006 0.00010727C15.3975 0.00639264 14.7245 0.288337 14.2275 0.785333C13.7301 1.28278 13.4481 1.95536 13.4423 2.6584C13.436 3.36147 13.7063 4.03898 14.1947 4.54492L23.0258 13.3759H8.04534C5.91195 13.3759 3.86556 14.2236 2.3566 15.7325C0.847634 17.241 0 19.2874 0 21.4213V50.9213C0 53.0551 0.847634 55.1011 2.3566 56.61C3.86556 58.1185 5.91195 58.9666 8.04534 58.9666H50.9546C53.088 58.9666 55.1344 58.1185 56.6434 56.61C58.1519 55.1011 58.9999 53.0551 58.9999 50.9213V21.4213C58.9999 19.2874 58.1519 17.241 56.6434 15.7325C55.1344 14.2236 53.088 13.3759 50.9546 13.3759H35.9742L44.8052 4.54492C45.2937 4.03895 45.564 3.36145 45.5581 2.6584C45.5518 1.95533 45.2694 1.28276 44.7724 0.785333C44.275 0.288337 43.6024 0.00639413 42.8994 0.00010727C42.1963 -0.00617821 41.5188 0.264098 41.0133 0.753013L29.5004 12.2659L17.9866 0.753013ZM5.3635 21.4215C5.3635 20.7103 5.64589 20.0279 6.14917 19.5251C6.65201 19.0223 7.33402 18.7399 8.04511 18.7399H50.9544C51.6655 18.7399 52.3475 19.0223 52.8503 19.5251C53.3532 20.0279 53.636 20.7103 53.636 21.4215V50.9215C53.636 51.6326 53.3532 52.3146 52.8503 52.8174C52.3475 53.3207 51.6655 53.6031 50.9544 53.6031H8.04511C7.33396 53.6031 6.65201 53.3207 6.14917 52.8174C5.64589 52.3146 5.3635 51.6326 5.3635 50.9215V21.4215Z" fill="white"/>
</svg>
