<svg width="32" height="32" viewBox="0 0 32 32" fill="none" xmlns="http://www.w3.org/2000/svg">
<path d="M4.63541 20.8037L4.63559 20.8041C5.28716 22.315 6.16685 23.6194 7.27378 24.7263C8.3807 25.8332 9.68505 26.7129 11.196 27.3645L11.1964 27.3647C12.688 28.0087 14.2858 28.3334 16 28.3334C17.7142 28.3334 19.312 28.0087 20.8036 27.3647L20.804 27.3645C22.315 26.7129 23.6193 25.8332 24.7262 24.7263C25.8332 23.6194 26.7128 22.315 27.3644 20.8041L27.3646 20.8037C28.0086 19.3121 28.3333 17.7143 28.3333 16.0001C28.3333 14.2859 28.0086 12.6881 27.3646 11.1965L27.3644 11.1961C26.7128 9.68513 25.8332 8.38078 24.7262 7.27386C23.6193 6.16694 22.315 5.28679 20.804 4.63434L4.63541 20.8037ZM4.63541 20.8037C3.99138 19.3121 3.66667 17.7143 3.66667 16.0001C3.66667 14.2859 3.99138 12.6881 4.63541 11.1965L4.63559 11.1961M4.63541 20.8037L4.63559 11.1961M4.63559 11.1961C5.28716 9.68513 6.16685 8.38078 7.27378 7.27386M4.63559 11.1961L7.27378 7.27386M7.27378 7.27386C8.3808 6.16684 9.68529 5.28663 11.1964 4.63416M7.27378 7.27386L11.1964 4.63416M11.1964 4.63416C12.688 3.99102 14.2858 3.66675 16 3.66675M11.1964 4.63416L16 3.66675M16 3.66675C17.7142 3.66675 19.312 3.99102 20.8036 4.63416L16 3.66675Z" stroke="#BEBEBE" stroke-width="2"/>
</svg>
