<svg width="68" height="68" viewBox="0 0 68 68" fill="none" xmlns="http://www.w3.org/2000/svg">
<path d="M61.936 8.01614C61.232 8.01614 60.4641 8.07998 59.6958 8.07998H59.6319V5.32821C59.6319 4.36839 58.8641 3.6001 57.9038 3.6001C49.648 3.6001 41.5838 5.2001 33.9678 8.33621C26.3517 5.2001 18.2878 3.6001 10.0318 3.6001C9.07199 3.6001 8.3037 4.30412 8.3037 5.32821V8.14433H8.23986C7.472 8.08004 6.70409 8.0162 5.93586 8.0162C4.97604 8.0162 4.27197 8.78406 4.27197 9.74432V43.7923C4.27197 44.7521 4.976 45.4562 5.93586 45.4562C11.3761 45.4562 16.752 46.0964 21.9359 47.3763C21.4881 48.7201 21.168 50.1281 21.168 51.6C21.168 58.6402 26.9278 64.4 33.968 64.4C41.0082 64.4 46.768 58.6402 46.768 51.6C46.768 50.1281 46.4479 48.7201 46.0001 47.3759C51.2484 46.096 56.5599 45.4557 62.0001 45.4557C62.96 45.4557 63.7283 44.7517 63.7283 43.7919L63.7278 9.74386C63.664 8.7836 62.8961 8.01574 61.9358 8.01574L61.936 8.01614ZM11.696 6.99204C18.7362 7.18401 25.648 8.65593 32.304 11.3438V38.9918C30 39.3119 27.9522 40.2079 26.2241 41.5516C21.488 40.2717 16.6241 39.5034 11.7601 39.3757L11.7597 6.9917L11.696 6.99204ZM33.968 61.3921C28.5921 61.3921 24.2399 57.0403 24.2399 51.6639C24.2399 46.2881 28.5921 41.8719 33.968 41.8719C39.3439 41.8719 43.6961 46.2237 43.6961 51.6C43.6961 56.9759 39.3439 61.3921 33.968 61.3921ZM56.24 39.376C51.3761 39.5042 46.5119 40.272 41.776 41.5519C40.0479 40.2077 37.9358 39.3117 35.6961 38.9922V11.3442C42.2881 8.65581 49.2001 7.18393 56.2401 6.99193L56.24 39.376Z" fill="white"/>
<path d="M16.3042 15.4397C19.8881 15.8237 23.4721 16.5277 26.9922 17.6156C27.1203 17.6795 27.3123 17.6795 27.5043 17.6795C28.2721 17.6795 28.9123 17.1674 29.1043 16.4634C29.3601 15.5674 28.8485 14.6076 27.9525 14.3514C24.2405 13.2634 20.4645 12.4956 16.6886 12.0474C15.7926 11.9835 14.9605 12.6233 14.8329 13.5192C14.769 13.9675 14.8967 14.4152 15.2168 14.7354C15.4721 15.1836 15.856 15.4397 16.3042 15.4397Z" fill="white"/>
<path d="M16.3041 21.9041C19.888 22.288 23.472 22.992 26.9921 24.08C27.1202 24.1438 27.3122 24.1438 27.4403 24.1438C28.2082 24.1438 28.8483 23.6318 29.0403 22.9277C29.2961 22.0317 28.7845 21.0719 27.8885 20.8157C24.2403 19.7278 20.4005 18.9599 16.6247 18.5117C15.6648 18.4479 14.8965 19.0876 14.7689 19.9836C14.705 20.4318 14.8327 20.8796 15.1528 21.1997C15.472 21.6484 15.8559 21.9041 16.3041 21.9041Z" fill="white"/>
<path d="M16.3042 28.368C19.8881 28.7519 23.4721 29.4559 26.9922 30.5439C27.1203 30.6077 27.3123 30.6077 27.5043 30.6077C28.2721 30.6077 28.9123 30.0956 29.1043 29.3916C29.3601 28.4956 28.8485 27.5358 27.9525 27.2796C24.3043 26.1916 20.4645 25.4238 16.6886 24.9756C15.7926 24.9117 14.9605 25.5515 14.8329 26.4475C14.769 26.8957 14.8967 27.3434 15.2168 27.6636C15.4721 28.1122 15.856 28.3041 16.3042 28.368Z" fill="white"/>
<path d="M26.9921 37.0079C27.1202 37.0718 27.3122 37.0718 27.4403 37.0718C28.2082 37.0718 28.8483 36.5597 29.0403 35.8557C29.2961 34.9597 28.7845 33.9999 27.8885 33.7437C24.2403 32.6557 20.4005 31.8879 16.6247 31.4397C15.6648 31.3115 14.8327 32.0156 14.7689 32.9115C14.705 33.3598 14.8327 33.8075 15.1528 34.1277C15.4086 34.5116 15.8568 34.7036 16.3046 34.7678C19.888 35.2161 23.472 35.9201 26.9921 37.0081L26.9921 37.0079Z" fill="white"/>
<path d="M40.4961 17.68C40.688 17.68 40.8162 17.68 41.0081 17.6161C44.4639 16.592 48.1121 15.8241 51.6961 15.4403C52.1443 15.3764 52.5283 15.1845 52.8479 14.8001C53.1037 14.4161 53.2318 14.0322 53.2318 13.584C53.168 12.688 52.3997 12.0479 51.5037 12.0479H51.3756C47.5997 12.4318 43.8238 13.1996 40.1117 14.3519C39.6635 14.48 39.3438 14.8001 39.0876 15.184C38.8956 15.5679 38.8318 16.0161 38.9595 16.4639C39.088 17.2322 39.7278 17.68 40.4961 17.68Z" fill="white"/>
<path d="M40.4961 24.144C40.6881 24.144 40.8162 24.144 41.0081 24.0802C44.4639 23.0561 48.1121 22.2882 51.6961 21.9043C52.1444 21.8405 52.5283 21.6485 52.8479 21.2641C53.1037 20.8802 53.2319 20.4963 53.2319 20.048C53.1037 19.152 52.272 18.448 51.3761 18.5761C47.6002 18.9601 43.76 19.7279 40.1122 20.8801C39.664 21.0083 39.3443 21.3284 39.0881 21.7123C38.8961 22.0962 38.8323 22.5444 38.96 22.9922C39.0881 23.6319 39.7278 24.144 40.4961 24.144Z" fill="white"/>
<path d="M40.4961 30.6078C40.6881 30.6078 40.8162 30.6078 41.0081 30.544C44.4639 29.5199 48.0484 28.752 51.6961 28.3681C52.1444 28.3043 52.5283 28.1123 52.8479 27.7279C53.1037 27.344 53.2319 26.9601 53.2319 26.5118C53.1037 25.6158 52.272 24.9118 51.3761 24.9757C47.6002 25.3596 43.76 26.1275 40.1122 27.2797C39.664 27.4078 39.3443 27.7279 39.0881 28.1118C38.8961 28.4958 38.8323 28.944 38.96 29.3917C39.0881 30.0958 39.7278 30.6078 40.4961 30.6078Z" fill="white"/>
<path d="M40.4961 37.0718C40.6881 37.0718 40.8162 37.0718 41.0081 37.0079C44.4639 35.9838 48.1121 35.2159 51.6961 34.8321C52.1444 34.7682 52.5283 34.5762 52.8479 34.1919C53.1037 33.8718 53.2319 33.424 53.2319 32.9758C53.1037 32.0798 52.272 31.3758 51.3761 31.5039C47.6002 31.8878 43.76 32.6556 40.1122 33.8079C39.664 33.936 39.3443 34.2561 39.0881 34.64C38.8961 35.0239 38.8323 35.4721 38.96 35.9199C39.0881 36.5596 39.7278 37.0717 40.4961 37.0717L40.4961 37.0718Z" fill="white"/>
<path d="M32.5603 46.5441C31.7281 45.9682 30.6401 46.6079 30.6401 47.5682V55.5682C30.6401 56.528 31.7281 57.1682 32.5603 56.5923L38.5764 52.5602C39.3442 52.0481 39.3442 50.9602 38.5764 50.512L32.5603 46.5441Z" fill="white"/>
</svg>
