<svg width="32" height="32" viewBox="0 0 32 32" fill="none" xmlns="http://www.w3.org/2000/svg">
<path d="M14.1333 22.1334L23.5333 12.7334L21.6667 10.8667L14.1333 18.4001L10.3333 14.6001L8.46667 16.4667L14.1333 22.1334ZM16 29.3334C14.1556 29.3334 12.4222 28.9832 10.8 28.2827C9.17778 27.5832 7.76667 26.6334 6.56667 25.4334C5.36667 24.2334 4.41689 22.8223 3.71733 21.2001C3.01689 19.5779 2.66667 17.8445 2.66667 16.0001C2.66667 14.1556 3.01689 12.4223 3.71733 10.8001C4.41689 9.17786 5.36667 7.76675 6.56667 6.56675C7.76667 5.36675 9.17778 4.41653 10.8 3.71608C12.4222 3.01653 14.1556 2.66675 16 2.66675C17.8444 2.66675 19.5778 3.01653 21.2 3.71608C22.8222 4.41653 24.2333 5.36675 25.4333 6.56675C26.6333 7.76675 27.5831 9.17786 28.2827 10.8001C28.9831 12.4223 29.3333 14.1556 29.3333 16.0001C29.3333 17.8445 28.9831 19.5779 28.2827 21.2001C27.5831 22.8223 26.6333 24.2334 25.4333 25.4334C24.2333 26.6334 22.8222 27.5832 21.2 28.2827C19.5778 28.9832 17.8444 29.3334 16 29.3334Z" fill="#47BA68"/>
</svg>
